<svg width="106" height="20" viewBox="0 0 106 20" fill="none" xmlns="http://www.w3.org/2000/svg">
<path d="M0.566051 15.4V1.14548H5.64702C6.75601 1.14548 7.67476 1.34732 8.40327 1.75102C9.13177 2.15471 9.67699 2.70689 10.0389 3.40755C10.4009 4.10358 10.5818 4.88776 10.5818 5.76011C10.5818 6.6371 10.3985 7.42592 10.032 8.12659C9.67003 8.82261 9.12249 9.37479 8.38935 9.78312C7.66084 10.1868 6.74441 10.3887 5.64006 10.3887H2.14602V8.56508H5.44517C6.14583 8.56508 6.71425 8.44444 7.15043 8.20315C7.5866 7.95722 7.90677 7.62313 8.11094 7.20088C8.3151 6.77862 8.41719 6.29837 8.41719 5.76011C8.41719 5.22185 8.3151 4.74392 8.11094 4.3263C7.90677 3.90869 7.58428 3.58156 7.14347 3.34491C6.70729 3.10826 6.13191 2.98994 5.41733 2.98994H2.71676V15.4H0.566051ZM12.9361 15.4V4.70911H14.9476V6.40741H15.059C15.2539 5.83203 15.5972 5.37962 16.0891 5.05017C16.5856 4.71607 17.1471 4.54903 17.7735 4.54903C17.9034 4.54903 18.0565 4.55367 18.2328 4.56295C18.4138 4.57223 18.5553 4.58383 18.6574 4.59775V6.58838C18.5739 6.56518 18.4254 6.53965 18.212 6.51181C17.9985 6.47933 17.7851 6.46309 17.5716 6.46309C17.0798 6.46309 16.6413 6.5675 16.2561 6.7763C15.8757 6.98047 15.574 7.26584 15.3513 7.63241C15.1286 7.99434 15.0172 8.40732 15.0172 8.87133V15.4H12.9361ZM24.5788 15.6158C23.5766 15.6158 22.7019 15.3861 21.9548 14.9267C21.2078 14.4674 20.6277 13.8247 20.2148 12.9987C19.8018 12.1728 19.5953 11.2076 19.5953 10.1033C19.5953 8.99429 19.8018 8.0245 20.2148 7.19392C20.6277 6.36333 21.2078 5.71835 21.9548 5.25897C22.7019 4.7996 23.5766 4.56991 24.5788 4.56991C25.5811 4.56991 26.4558 4.7996 27.2028 5.25897C27.9499 5.71835 28.5299 6.36333 28.9429 7.19392C29.3559 8.0245 29.5624 8.99429 29.5624 10.1033C29.5624 11.2076 29.3559 12.1728 28.9429 12.9987C28.5299 13.8247 27.9499 14.4674 27.2028 14.9267C26.4558 15.3861 25.5811 15.6158 24.5788 15.6158ZM24.5858 13.8688C25.2354 13.8688 25.7737 13.6971 26.2006 13.3537C26.6275 13.0103 26.943 12.5533 27.1472 11.9826C27.356 11.4118 27.4604 10.7831 27.4604 10.0963C27.4604 9.41423 27.356 8.78781 27.1472 8.21707C26.943 7.64169 26.6275 7.18 26.2006 6.83198C25.7737 6.48397 25.2354 6.30997 24.5858 6.30997C23.9315 6.30997 23.3886 6.48397 22.9571 6.83198C22.5302 7.18 22.2124 7.64169 22.0036 8.21707C21.7994 8.78781 21.6973 9.41423 21.6973 10.0963C21.6973 10.7831 21.7994 11.4118 22.0036 11.9826C22.2124 12.5533 22.5302 13.0103 22.9571 13.3537C23.3886 13.6971 23.9315 13.8688 24.5858 13.8688ZM32.0524 15.4V1.14548H37.1333C38.2423 1.14548 39.1611 1.34732 39.8896 1.75102C40.6181 2.15471 41.1633 2.70689 41.5252 3.40755C41.8872 4.10358 42.0681 4.88776 42.0681 5.76011C42.0681 6.6371 41.8849 7.42592 41.5183 8.12659C41.1564 8.82261 40.6088 9.37479 39.8757 9.78312C39.1472 10.1868 38.2307 10.3887 37.1264 10.3887H33.6324V8.56508H36.9315C37.6322 8.56508 38.2006 8.44444 38.6368 8.20315C39.0729 7.95722 39.3931 7.62313 39.5973 7.20088C39.8014 6.77862 39.9035 6.29837 39.9035 5.76011C39.9035 5.22185 39.8014 4.74392 39.5973 4.3263C39.3931 3.90869 39.0706 3.58156 38.6298 3.34491C38.1936 3.10826 37.6182 2.98994 36.9037 2.98994H34.2031V15.4H32.0524ZM47.438 15.6367C46.7605 15.6367 46.148 15.5114 45.6005 15.2608C45.0529 15.0056 44.6191 14.6367 44.2989 14.1541C43.9834 13.6716 43.8256 13.0799 43.8256 12.3793C43.8256 11.7761 43.9416 11.2796 44.1736 10.8898C44.4056 10.5 44.7188 10.1915 45.1132 9.96409C45.5077 9.73672 45.9485 9.56503 46.4357 9.44903C46.9229 9.33303 47.4194 9.24486 47.9252 9.18454C48.5655 9.1103 49.0852 9.04998 49.4843 9.00358C49.8833 8.95253 50.1733 8.87133 50.3543 8.75997C50.5353 8.6486 50.6257 8.46764 50.6257 8.21707V8.16835C50.6257 7.56049 50.4541 7.08951 50.1107 6.75542C49.772 6.42133 49.2662 6.25429 48.5934 6.25429C47.8927 6.25429 47.3405 6.40973 46.9368 6.72062C46.5378 7.02687 46.2617 7.36792 46.1086 7.74377L44.1527 7.29832C44.3847 6.6487 44.7235 6.12436 45.1689 5.72531C45.619 5.32161 46.1364 5.02928 46.7211 4.84832C47.3057 4.66271 47.9205 4.56991 48.5655 4.56991C48.9924 4.56991 49.4448 4.62095 49.9228 4.72304C50.4053 4.82048 50.8554 5.00144 51.273 5.26593C51.6953 5.53042 52.041 5.90859 52.3101 6.40045C52.5792 6.88767 52.7138 7.52105 52.7138 8.30059V15.4H50.6814V13.9384H50.5979C50.4633 14.2075 50.2615 14.472 49.9924 14.7318C49.7232 14.9917 49.3775 15.2075 48.9553 15.3791C48.533 15.5508 48.0273 15.6367 47.438 15.6367ZM47.8904 13.9662C48.4658 13.9662 48.9576 13.8525 49.3659 13.6252C49.7789 13.3978 50.0921 13.1008 50.3056 12.7343C50.5237 12.363 50.6327 11.9663 50.6327 11.5441V10.1659C50.5585 10.2402 50.4146 10.3098 50.2012 10.3747C49.9924 10.4351 49.7534 10.4884 49.4843 10.5348C49.2151 10.5766 48.953 10.616 48.6978 10.6531C48.4426 10.6856 48.2291 10.7135 48.0574 10.7367C47.6537 10.7877 47.2848 10.8736 46.9507 10.9942C46.6213 11.1148 46.3568 11.2888 46.1573 11.5162C45.9624 11.7389 45.865 12.0359 45.865 12.4071C45.865 12.9222 46.0552 13.312 46.4357 13.5764C46.8162 13.8363 47.3011 13.9662 47.8904 13.9662ZM55.4857 15.4V4.70911H57.5668V15.4H55.4857ZM56.5367 3.05954C56.1748 3.05954 55.8639 2.9389 55.604 2.69761C55.3488 2.45168 55.2212 2.15935 55.2212 1.82062C55.2212 1.47725 55.3488 1.18492 55.604 0.943631C55.8639 0.697704 56.1748 0.57474 56.5367 0.57474C56.8987 0.57474 57.2072 0.697704 57.4624 0.943631C57.7223 1.18492 57.8522 1.47725 57.8522 1.82062C57.8522 2.15935 57.7223 2.45168 57.4624 2.69761C57.2072 2.9389 56.8987 3.05954 56.5367 3.05954ZM62.4477 9.0523V15.4H60.3666V4.70911H62.3642V6.44917H62.4964C62.7423 5.88307 63.1275 5.42834 63.6518 5.08497C64.1808 4.7416 64.8467 4.56991 65.6494 4.56991C66.3779 4.56991 67.0159 4.72304 67.5635 5.02929C68.111 5.3309 68.5356 5.78099 68.8372 6.37957C69.1388 6.97815 69.2896 7.71825 69.2896 8.59988V15.4H67.2085V8.85045C67.2085 8.07555 67.0066 7.47001 66.6029 7.03383C66.1993 6.59302 65.6448 6.37261 64.9395 6.37261C64.4569 6.37261 64.0277 6.47701 63.6518 6.68582C63.2806 6.89463 62.986 7.20088 62.7679 7.60457C62.5544 8.00362 62.4477 8.4862 62.4477 9.0523ZM77.0711 4.70911V6.37957H71.2315V4.70911H77.0711ZM72.7975 2.14775H74.8787V12.261C74.8787 12.6647 74.939 12.9686 75.0596 13.1728C75.1803 13.3723 75.3357 13.5092 75.526 13.5834C75.7208 13.653 75.932 13.6878 76.1593 13.6878C76.3264 13.6878 76.4725 13.6762 76.5978 13.653C76.7231 13.6298 76.8206 13.6112 76.8902 13.5973L77.266 15.3165C77.1454 15.3629 76.9737 15.4093 76.751 15.4557C76.5282 15.5067 76.2498 15.5346 75.9157 15.5392C75.3682 15.5485 74.8578 15.4511 74.3845 15.2469C73.9112 15.0427 73.5284 14.7272 73.236 14.3003C72.9437 13.8734 72.7975 13.3375 72.7975 12.6925V2.14775ZM79.3732 15.4V4.70911H81.4543V15.4H79.3732ZM80.4242 3.05954C80.0623 3.05954 79.7514 2.9389 79.4915 2.69761C79.2363 2.45168 79.1087 2.15935 79.1087 1.82062C79.1087 1.47725 79.2363 1.18492 79.4915 0.943631C79.7514 0.697704 80.0623 0.57474 80.4242 0.57474C80.7862 0.57474 81.0947 0.697704 81.3499 0.943631C81.6098 1.18492 81.7397 1.47725 81.7397 1.82062C81.7397 2.15935 81.6098 2.45168 81.3499 2.69761C81.0947 2.9389 80.7862 3.05954 80.4242 3.05954ZM86.3352 9.0523V15.4H84.2541V4.70911H86.2517V6.44917H86.3839C86.6298 5.88307 87.015 5.42834 87.5393 5.08497C88.0683 4.7416 88.7342 4.56991 89.5369 4.56991C90.2654 4.56991 90.9034 4.72304 91.451 5.02929C91.9985 5.3309 92.4231 5.78099 92.7247 6.37957C93.0263 6.97815 93.1771 7.71825 93.1771 8.59988V15.4H91.096V8.85045C91.096 8.07555 90.8941 7.47001 90.4904 7.03383C90.0868 6.59302 89.5323 6.37261 88.827 6.37261C88.3444 6.37261 87.9152 6.47701 87.5393 6.68582C87.1681 6.89463 86.8735 7.20088 86.6554 7.60457C86.4419 8.00362 86.3352 8.4862 86.3352 9.0523ZM100.451 19.6318C99.6014 19.6318 98.8706 19.5205 98.2581 19.2978C97.6502 19.075 97.1537 18.7804 96.7686 18.4138C96.3834 18.0472 96.0957 17.6459 95.9055 17.2097L97.6943 16.4719C97.8196 16.6761 97.9866 16.8918 98.1954 17.1192C98.4089 17.3512 98.6966 17.5484 99.0585 17.7108C99.4251 17.8732 99.896 17.9544 100.471 17.9544C101.26 17.9544 101.912 17.7619 102.427 17.3767C102.942 16.9962 103.2 16.3884 103.2 15.5531V13.4512H103.068C102.942 13.6785 102.761 13.9314 102.525 14.2098C102.293 14.4882 101.972 14.7295 101.564 14.9337C101.156 15.1379 100.625 15.2399 99.9703 15.2399C99.1258 15.2399 98.3648 15.0427 97.6873 14.6483C97.0145 14.2493 96.4809 13.6623 96.0865 12.8874C95.6967 12.1078 95.5018 11.1496 95.5018 10.0128C95.5018 8.87597 95.6944 7.90154 96.0795 7.08951C96.4693 6.27749 97.0029 5.65571 97.6804 5.22417C98.3578 4.788 99.1258 4.56991 99.9842 4.56991C100.648 4.56991 101.184 4.68127 101.592 4.904C102 5.12209 102.318 5.3773 102.546 5.66963C102.778 5.96196 102.956 6.21948 103.081 6.44221H103.235V4.70911H105.274V15.6367C105.274 16.5554 105.061 17.3094 104.634 17.8987C104.207 18.488 103.629 18.9242 102.901 19.2073C102.177 19.4903 101.36 19.6318 100.451 19.6318ZM100.43 13.5138C101.028 13.5138 101.534 13.3746 101.947 13.0962C102.365 12.8131 102.68 12.4094 102.894 11.8851C103.112 11.3561 103.221 10.7228 103.221 9.98497C103.221 9.26574 103.114 8.63236 102.901 8.08483C102.687 7.53729 102.374 7.11039 101.961 6.80414C101.548 6.49325 101.038 6.33781 100.43 6.33781C99.8032 6.33781 99.2812 6.50021 98.8636 6.82502C98.446 7.14519 98.1305 7.58137 97.917 8.13355C97.7082 8.68572 97.6038 9.30287 97.6038 9.98497C97.6038 10.6856 97.7105 11.3005 97.924 11.8294C98.1374 12.3584 98.4529 12.7714 98.8706 13.0683C99.2928 13.3653 99.8125 13.5138 100.43 13.5138Z" fill="#045099"/>
</svg>
